LG_Walk_Normal09																		
version=1																		
nRows=62																		
nColumns=19																		
inDegrees=yes																		
endheader																		
time	ground_force2_vx	ground_force2_vy	ground_force2_vz	ground_force2_px	ground_force2_py	ground_force2_pz	ground_torque2_x	ground_torque2_y	ground_torque2_z	ground_force1_vx	ground_force1_vy	ground_force1_vz	ground_force1_px	ground_force1_py	ground_force1_pz	ground_torque1_x	ground_torque1_y	ground_torque1_z
6.13	-37.013252	766.830078	93.405121	0.127473	0	-0.250529	9.00E-06	2.491474	3.00E-06	0	0	0	-0.13	0	0.305	0	0	0
6.131	-37.013252	764.095337	94.267197	0.127473	0	-0.250284	9.00E-06	2.495462	3.00E-06	0	0	0	-0.13	0	0.305	0	0	0
6.132	-37.013252	763.90979	94.42366	0.127451	0	-0.250184	9.00E-06	2.520825	3.00E-06	0	0	0	-0.13	0	0.305	0	0	0
6.133	-37.013969	763.90979	95.677635	0.127264	0	-0.249961	9.00E-06	2.520825	9.00E-06	0	0	0	-0.13	0	0.305	0	0	0
6.134	-37.013969	763.90979	96.382927	0.127264	0	-0.249521	1.50E-05	2.520583	9.00E-06	10.046554	13.84207	21.243853	-0.131117	0	0.305	0	0.797262	0
6.135	-36.853939	762.022949	97.322891	0.127264	0	-0.249406	1.50E-05	2.520583	4.00E-06	11.295055	14.035364	23.594252	-0.131117	0	0.286073	0.00E+00	0.797262	0
6.136	-36.619667	762.219971	97.871529	0.127351	0	-0.249205	1.30E-05	2.551544	4.00E-06	11.375793	17.846395	25.866199	-0.115271	0	0.224033	0	-0.17911	0
6.137	-36.461079	762.219971	99.360008	0.127123	0	-0.249406	8.00E-06	2.57532	4.00E-06	12.865784	25.273911	27.511787	-0.114363	0	0.218866	0	-0.39341	0
6.138	-36.461079	762.219971	99.438263	0.127302	0	-0.2491	1.00E-05	2.57532	1.00E-06	12.865784	26.134893	27.511787	-0.095042	0	0.206643	0	-0.796813	0
6.139	-36.923134	763.101685	99.438301	0.127302	0	-0.249141	8.00E-06	2.49774	9.00E-06	13.342993	38.374352	24.769091	-0.095042	0	0.202571	0	-0.800658	0
6.14	-36.923134	762.589478	100.848328	0.127405	0	-0.2491	9.00E-06	2.49774	1.00E-06	13.105109	46.135559	24.769091	-0.095042	0	0.202571	-1.00E-06	-0.800658	0
6.141	-36.29311	763.101685	101.005028	0.127581	0	-0.249141	7.00E-06	2.49774	5.00E-06	13.105109	50.449986	26.492363	-0.089139	0	0.185117	-1.00E-06	-1.180123	0
6.142	-36.29311	762.589478	101.240143	0.127405	0	-0.248676	9.00E-06	2.596615	1.00E-06	9.510256	59.767593	29.156202	-0.089139	0	0.185117	-1.00E-06	-1.180123	0
6.143	-36.29311	758.116943	102.493668	0.127144	0	-0.248424	1.20E-05	2.528541	2.00E-06	8.252373	66.80246	29.547653	-0.089139	0	0.197355	-1.00E-06	-1.180123	0
6.144	-36.686691	757.958496	102.963943	0.127144	0	-0.248424	1.40E-05	2.576441	2.00E-06	8.252373	69.057816	29.547653	-0.089468	0	0.197355	-1.00E-06	-1.23503	0
6.145	-36.610283	757.958496	103.277588	0.127144	0	-0.248269	1.40E-05	2.551809	2.00E-06	9.274538	69.057816	26.883652	-0.089468	0	0.197355	-1.00E-06	-1.23503	0
6.146	-36.610283	757.941101	103.277588	0.127298	0	-0.248552	1.50E-05	2.551809	4.00E-06	9.274538	76.452164	25.316439	-0.092868	0	0.197364	-1.00E-06	-0.759219	0
6.147	-35.595337	756.216553	103.277588	0.126784	0	-0.248064	1.20E-05	2.461815	2.00E-06	8.422506	83.157242	24.297174	-0.099424	0	0.2008	-1.00E-06	-0.751267	0
6.148	-35.278881	756.216553	103.434814	0.127032	0	-0.248064	9.00E-06	2.461815	4.00E-06	7.881158	89.626617	24.297174	-0.100213	0	0.218927	-1.00E-06	-0.742733	0
6.149	-35.128952	755.359131	103.434814	0.126844	0	-0.24791	7.00E-06	2.491174	4.00E-06	7.096154	92.41729	22.808252	-0.103703	0	0.218927	-1.00E-06	-0.742733	0.00E+00
6.15	-35.055431	752.434143	103.513138	0.126844	0	-0.24759	7.00E-06	2.5625	4.00E-06	7.502006	95.311073	22.650141	-0.10644	0	0.218927	-1.00E-06	-0.742733	-1.00E-06
6.151	-34.894676	750.028076	103.592072	0.126729	0	-0.247081	7.00E-06	2.491174	8.00E-06	7.269175	108.536041	18.262346	-0.107413	0	0.225318	-1.00E-06	-0.241247	-1.00E-06
6.152	-34.503983	748.821899	103.905434	0.126689	0	-0.247081	1.20E-05	2.5625	2.00E-06	7.269175	117.637177	16.303038	-0.112663	0	0.231577	-1.00E-06	-0.241247	-1.00E-06
6.153	-33.958302	747.449097	104.140701	0.126689	0	-0.247081	8.00E-06	2.438799	8.00E-06	5.936329	118.84182	14.030605	-0.112663	0	0.231577	-2.00E-06	-0.218271	-1.00E-06
6.154	-33.95686	746.409546	104.140701	0.126683	0	-0.247111	8.00E-06	2.476148	9.00E-06	5.157097	119.001541	11.679964	-0.109651	0	0.231577	-2.00E-06	-0.33254	-1.00E-06
6.155	-33.254036	746.240601	104.140701	0.126779	0	-0.246728	8.00E-06	2.438799	9.00E-06	5.149882	119.001541	9.956211	-0.109013	0	0.229834	-2.00E-06	-0.337407	-1.00E-06
6.156	-33.722584	745.237732	104.375816	0.126779	0	-0.246355	7.00E-06	2.426222	1.00E-06	5.149882	118.537521	7.213957	-0.107596	0	0.22259	0.00E+00	-0.45914	0
6.157	-33.253315	743.669312	104.375977	0.126779	0	-0.246355	1.00E-05	2.394146	1.00E-06	5.776297	118.176468	4.236674	-0.106343	0	0.218162	-2.00E-06	-0.493916	0
6.158	-32.781879	742.467041	104.375977	0.127125	0	-0.246299	3.00E-06	2.273192	3.00E-06	5.776297	118.537521	2.826401	-0.103105	0	0.217641	-1.00E-06	-0.45914	0
6.159	-32.781879	739.888489	104.375977	0.126974	0	-0.246299	6.00E-06	2.273192	3.00E-06	2.327765	123.541916	-3.206659	-0.101757	0	0.21514	-2.00E-06	-0.305896	-1.00E-06
6.16	-32.630505	738.335205	104.76767	0.126974	0	-0.246088	6.00E-06	2.35157	3.00E-06	2.327765	123.722099	-4.538759	-0.101205	0	0.209815	-1.00E-06	-0.305896	-1.00E-06
6.161	-32.630505	736.430054	105.238052	0.126773	0	-0.246088	9.00E-06	2.353147	3.00E-06	2.796314	124.569542	-5.949272	-0.101205	0	0.209458	-2.00E-06	-0.458053	-1.00E-06
6.162	-32.239086	734.189392	105.238258	0.12638	0	-0.246058	1.10E-05	2.468899	3.00E-06	2.796314	129.745605	-7.594778	-0.100971	0	0.209815	-1.00E-06	-0.458053	-1.00E-06
6.163	-32.006977	729.374451	105.238258	0.12616	0	-0.245952	1.50E-05	2.387824	3.00E-06	2.172064	137.462769	-10.258902	-0.100971	0	0.213791	-1.00E-06	-0.363109	-1.00E-06
6.164	-31.849112	728.841309	104.846725	0.126132	0	-0.245508	1.10E-05	2.387824	2.00E-06	1.781366	139.184692	-12.296219	-0.099688	0	0.217895	-1.00E-06	-0.340269	-1.00E-06
6.165	-31.227024	724.714478	104.846725	0.125982	0	-0.245508	1.10E-05	2.387824	2.00E-06	1.238573	144.462936	-14.568729	-0.099688	0	0.219194	-1.00E-06	-0.289176	-1.00E-06
6.166	-31.149895	722.298706	104.847168	0.125982	0	-0.245135	8.00E-06	2.339552	4.00E-06	1.238573	146.048645	-15.900752	-0.102747	0	0.221915	-1.00E-06	-0.289176	-1.00E-06
6.167	-30.052044	721.980469	105.00383	0.126014	0	-0.244383	1.10E-05	2.306226	4.00E-06	1.238573	151.203461	-17.860022	-0.103423	0	0.221008	-1.00E-06	-0.208763	-1.00E-06
6.168	-29.660625	718.009094	105.00383	0.126027	0	-0.244656	1.20E-05	2.306226	4.00E-06	2.100708	160.141953	-18.56588	-0.103423	0	0.221008	-1.00E-06	-0.391811	-1.00E-06
6.169	-28.648561	717.499939	105.082245	0.126014	0	-0.244383	1.20E-05	2.344195	3.00E-06	2.74372	160.663025	-20.446739	-0.103058	0	0.221008	0	-0.146715	0.00E+00
6.17	-28.643511	714.390259	105.082245	0.126036	0	-0.244314	4.00E-06	2.344195	8.00E-06	2.74372	169.750732	-20.446739	-0.103058	0	0.218581	0	-0.355733	-1.00E-06
6.171	-28.489252	710.279541	104.612297	0.125877	0	-0.243987	4.00E-06	2.344195	4.00E-06	1.888802	183.026321	-22.406088	-0.106032	0	0.224425	0.00E+00	-0.161584	0.00E+00
6.172	-28.102882	709.221558	104.612297	0.125723	0	-0.243758	4.00E-06	2.371022	8.00E-06	1.100191	195.905228	-23.816521	-0.106714	0	0.226295	-2.00E-06	-0.161584	-1.00E-06
6.173	-27.317158	705.780884	104.220726	0.125723	0	-0.243691	8.00E-06	2.371022	5.00E-06	1.735988	201.232147	-23.817043	-0.106714	0	0.226295	-2.00E-06	-0.161584	0.00E+00
6.174	-27.087214	705.279053	103.985931	0.125471	0	-0.243552	0.00E+00	2.371022	6.00E-06	1.735988	206.908524	-25.227396	-0.105118	0	0.226295	-2.00E-06	-0.16055	-1.00E-06
6.175	-26.850773	699.403687	103.985931	0.125548	0	-0.243275	8.00E-06	2.35354	5.00E-06	1.735988	217.586151	-26.324709	-0.105105	0	0.226249	-1.00E-06	-0.16693	-1.00E-06
6.176	-26.853661	696.661621	103.985931	0.125548	0	-0.243275	5.00E-06	2.35354	0	0.719596	222.059052	-26.87306	-0.105118	0	0.226676	-1.00E-06	-0.16055	-1.00E-06
6.177	-26.226522	695.788269	103.672974	0.125548	0	-0.243061	5.00E-06	2.300231	0.00E+00	0.178247	233.076904	-27.42222	-0.105105	0	0.227009	-1.00E-06	-0.172295	-2.00E-06
6.178	-25.990805	691.485168	103.594368	0.125428	0	-0.243482	2.00E-06	2.252983	5.00E-06	-0.683165	238.391083	-28.126871	-0.104419	0	0.227549	-3.00E-06	0.060152	-1.00E-06
6.179	-25.443684	688.38739	103.594368	0.125428	0	-0.243313	2.00E-06	2.252983	5.00E-06	-3.731619	254.044983	-30.713591	-0.104093	0	0.22795	-1.00E-06	0.14616	-2.00E-06
6.18	-25.365833	687.343994	103.672859	0.125448	0	-0.243313	6.00E-06	2.252983	3.00E-06	-4.19656	263.507263	-30.713591	-0.104419	0	0.228771	-2.00E-06	0.14616	-2.00E-06
6.181	-24.81871	685.116882	103.672859	0.125448	0	-0.243308	9.00E-06	2.248518	0	-4.353705	273.990906	-30.322262	-0.104619	0	0.229049	0.00E+00	-0.048025	-2.00E-06
6.182	-24.663731	680.796326	103.359818	0.125409	0	-0.242331	1.00E-05	2.248518	0.00E+00	-4.665831	282.775024	-30.322262	-0.104619	0	0.229463	-2.00E-06	-0.048025	-2.00E-06
6.183	-23.723747	676.844238	103.203194	0.125321	0	-0.242331	1.00E-05	2.225805	4.00E-06	-6.067869	292.394257	-31.811264	-0.105252	0	0.230555	0.00E+00	0.090168	-2.00E-06
6.184	-23.178791	674.784058	103.203194	0.125094	0	-0.242306	1.40E-05	2.1799	7.00E-06	-6.069313	297.205414	-32.594852	-0.104673	0	0.230779	-1.00E-06	0.199953	-2.00E-06
6.185	-23.098774	669.078064	103.517036	0.125094	0	-0.242297	4.00E-06	2.1799	4.00E-06	-6.927837	300.987122	-33.456772	-0.104695	0	0.230779	-1.00E-06	0.246825	-2.00E-06
6.186	-22.472359	666.682312	103.517036	0.12472	0	-0.241731	1.00E-05	2.1799	7.00E-06	-6.930724	307.526703	-33.926994	-0.104695	0	0.230779	-3.00E-06	0.246825	-2.00E-06
6.187	-21.537426	664.610168	103.517036	0.12472	0	-0.241699	1.00E-05	2.146169	4.00E-06	-7.004246	314.39679	-35.024025	-0.105777	0	0.233661	-3.00E-06	0.044085	-2.00E-06
6.188	-20.910288	660.833984	103.517365	0.12472	0	-0.241383	1.30E-05	2.146169	6.00E-06	-6.930724	318.32666	-35.49453	-0.105777	0	0.233661	-3.00E-06	0.01594	-2.00E-06
6.189	-20.518867	658.06604	103.595894	0.124683	0	-0.24136	1.30E-05	2.146169	6.00E-06	-6.847822	322.131378	-37.374863	-0.105394	0	0.232904	-2.00E-06	0.044085	-2.00E-06
6.19	-19.663231	655.134094	103.595894	0.125183	0	-0.24136	1.30E-05	2.106782	6.00E-06	-6.847822	326.933716	-37.609978	-0.105115	0	0.232904	-2.00E-06	0.091091	-2.00E-06
6.191	-18.721081	649.813843	103.28257	0.124683	0	-0.240436	1.00E-05	2.149478	2.00E-06	-7.314206	333.798492	-39.020248	-0.105394	0	0.233741	-2.00E-06	0.116321	-2.00E-06
